<?xml version="1.0" encoding="utf-8"?>
<!-- Generator: Adobe Illustrator 18.1.0, SVG Export Plug-In . SVG Version: 6.00 Build 0)  -->
<!DOCTYPE svg PUBLIC "-//W3C//DTD SVG 1.1//EN" "http://www.w3.org/Graphics/SVG/1.1/DTD/svg11.dtd">
<svg version="1.1" id="Layer_1" xmlns="http://www.w3.org/2000/svg" xmlns:xlink="http://www.w3.org/1999/xlink" x="0px" y="0px"
	 viewBox="0 0 440 196.5" enable-background="new 0 0 440 196.5" xml:space="preserve">
<g>
	<g>
		<g>
			<path fill="#FFFFFF" d="M237.5,174.8c-1.2,0.6-3.7,1.2-6.9,1.2c-7.4,0-12.8-4.6-12.8-13.2c0-8.2,5.5-13.7,13.6-13.7
				c3.2,0,5.3,0.7,6.2,1.2l-0.9,2.7c-1.2-0.6-3.1-1.1-5.2-1.1c-6.1,0-10.2,3.9-10.2,10.8c0,6.4,3.7,10.5,10,10.5
				c2.1,0,4.2-0.4,5.5-1.1L237.5,174.8z"/>
		</g>
	</g>
	<g>
		<g>
			<path fill="#FFFFFF" d="M257.8,167.4l-2.7,8.2h-3.5l8.9-26.1h4l8.9,26.1h-3.6l-2.8-8.2H257.8z M266.3,164.8l-2.6-7.5
				c-0.6-1.7-1-3.2-1.4-4.8h-0.1c-0.4,1.5-0.8,3.1-1.3,4.7l-2.6,7.5H266.3z"/>
		</g>
	</g>
	<g>
		<g>
			<path fill="#FFFFFF" d="M288.8,149.8c1.6-0.3,3.8-0.5,6.5-0.5c3.3,0,5.8,0.8,7.3,2.2c1.4,1.2,2.3,3.1,2.3,5.5
				c0,2.4-0.7,4.2-2,5.6c-1.8,1.9-4.7,2.9-8,2.9c-1,0-1.9,0-2.7-0.2v10.4h-3.4V149.8z M292.2,162.4c0.7,0.2,1.7,0.3,2.8,0.3
				c4.1,0,6.5-2,6.5-5.5c0-3.5-2.5-5.1-6.2-5.1c-1.5,0-2.6,0.1-3.2,0.3V162.4z"/>
		</g>
	</g>
	<g>
		<g>
			<path fill="#FFFFFF" d="M324.4,149.5v26.1H321v-26.1H324.4z"/>
		</g>
	</g>
	<g>
		<g>
			<path fill="#FFFFFF" d="M346.8,152.4h-7.9v-2.9h19.3v2.9h-8v23.2h-3.4V152.4z"/>
		</g>
	</g>
	<g>
		<g>
			<path fill="#FFFFFF" d="M374,167.4l-2.7,8.2h-3.5l8.9-26.1h4l8.9,26.1H386l-2.8-8.2H374z M382.6,164.8l-2.6-7.5
				c-0.6-1.7-1-3.2-1.4-4.8h-0.1c-0.4,1.5-0.8,3.1-1.3,4.7l-2.5,7.5H382.6z"/>
		</g>
	</g>
	<g>
		<g>
			<path fill="#FFFFFF" d="M405,149.5h3.4v23.3h11.1v2.8H405V149.5z"/>
		</g>
	</g>
</g>
<polygon fill="#FFFFFF" points="137.6,120.4 99.4,120.4 99.4,18.6 89.9,18.6 89.9,129.9 147.1,129.9 147.1,18.6 137.6,18.6 "/>
<polygon fill="#FFFFFF" points="170.7,18.6 161.8,18.6 161.8,129.9 168.1,129.9 202.6,129.9 202.6,122.6 202.6,120.3 170.7,120.3 
	"/>
<polygon fill="#FFFFFF" points="226.4,18.6 217.5,18.6 217.5,129.9 224.1,129.9 258.3,129.9 258.3,122.6 258.3,120.3 226.4,120.3 
	"/>
<rect x="273.2" y="18.8" fill="#FFFFFF" width="9" height="110.8"/>
<path fill="#F15A29" d="M297,129.9h55.5V18.8H297V129.9z M343.6,27.8v51.4l-37.7,34.7v-86H343.6z M343.6,92.5v28.2h-31.4L343.6,92.5
	z"/>
<polygon fill="#FFFFFF" points="412.4,16 367.4,57.5 367.4,129.9 376.4,129.9 376.4,63.2 412.4,31.1 412.4,129.9 421.4,129.9 
	421.4,16 "/>
<path fill="#FFFFFF" d="M73.5,19.1H19.1v110.8h54.5V97.2L48.4,74.3l25.2-23.7L73.5,19.1z M64.5,121H28V79h11.3L64.5,103L64.5,121z
	 M28,70V28h36.6v18.8L39.8,70L28,70z"/>
</svg>
